<svg width="16" height="16" viewBox="0 0 16 16" fill="none" xmlns="http://www.w3.org/2000/svg">
<path d="M7.25015 8C7.25015 8.19891 7.32917 8.38968 7.46982 8.53033C7.61047 8.67098 7.80124 8.75 8.00015 8.75C8.19906 8.75 8.38983 8.67098 8.53048 8.53033C8.67113 8.38968 8.75015 8.19891 8.75015 8C8.75015 7.80109 8.67113 7.61032 8.53048 7.46967C8.38983 7.32902 8.19906 7.25 8.00015 7.25C7.80124 7.25 7.61047 7.32902 7.46982 7.46967C7.32917 7.61032 7.25015 7.80109 7.25015 8ZM10.3751 8C10.3751 8.19891 10.4542 8.38968 10.5948 8.53033C10.7355 8.67098 10.9262 8.75 11.1251 8.75C11.3241 8.75 11.5148 8.67098 11.6555 8.53033C11.7961 8.38968 11.8751 8.19891 11.8751 8C11.8751 7.80109 11.7961 7.61032 11.6555 7.46967C11.5148 7.32902 11.3241 7.25 11.1251 7.25C10.9262 7.25 10.7355 7.32902 10.5948 7.46967C10.4542 7.61032 10.3751 7.80109 10.3751 8ZM4.12515 8C4.12515 8.19891 4.20417 8.38968 4.34482 8.53033C4.48547 8.67098 4.67624 8.75 4.87515 8.75C5.07406 8.75 5.26483 8.67098 5.40548 8.53033C5.54613 8.38968 5.62515 8.19891 5.62515 8C5.62515 7.80109 5.54613 7.61032 5.40548 7.46967C5.26483 7.32902 5.07406 7.25 4.87515 7.25C4.67624 7.25 4.48547 7.32902 4.34482 7.46967C4.20417 7.61032 4.12515 7.80109 4.12515 8ZM14.4564 5.2875C14.1033 4.44844 13.597 3.69531 12.9517 3.04844C12.3109 2.40531 11.5502 1.8941 10.7126 1.54375C9.85327 1.18281 8.94077 1 8.00015 1H7.9689C7.02202 1.00469 6.10484 1.19219 5.24234 1.56094C4.41196 1.91488 3.65837 2.427 3.02359 3.06875C2.38452 3.71406 1.88296 4.46406 1.53609 5.3C1.17671 6.16563 0.995462 7.08594 1.00015 8.03281C1.00545 9.11792 1.26217 10.187 1.75015 11.1562V13.5312C1.75015 13.7219 1.82587 13.9047 1.96067 14.0395C2.09546 14.1743 2.27828 14.25 2.4689 14.25H4.84546C5.81467 14.738 6.88379 14.9947 7.9689 15H8.00171C8.93765 15 9.84546 14.8188 10.7001 14.4641C11.5335 14.1179 12.2913 13.6126 12.9314 12.9766C13.5767 12.3375 14.0845 11.5906 14.4392 10.7578C14.808 9.89531 14.9955 8.97813 15.0001 8.03125C15.0048 7.07969 14.8205 6.15625 14.4564 5.2875ZM12.0955 12.1313C11.0001 13.2156 9.54702 13.8125 8.00015 13.8125H7.97359C7.0314 13.8078 6.09546 13.5734 5.2689 13.1328L5.13765 13.0625H2.93765V10.8625L2.86734 10.7312C2.42671 9.90469 2.19234 8.96875 2.18765 8.02656C2.1814 6.46875 2.77671 5.00625 3.8689 3.90469C4.95952 2.80312 6.41734 2.19375 7.97515 2.1875H8.00171C8.78296 2.1875 9.54077 2.33906 10.2548 2.63906C10.9517 2.93125 11.5767 3.35156 12.1142 3.88906C12.6501 4.425 13.072 5.05156 13.3642 5.74844C13.6673 6.47031 13.8189 7.23594 13.8158 8.02656C13.8064 9.58281 13.1955 11.0406 12.0955 12.1313Z" fill="#262626"/>
</svg>
